<svg width="62" height="62" viewBox="0 0 62 62" fill="none" xmlns="http://www.w3.org/2000/svg">
<g filter="url(#filter0_i_7_1421)">
<path d="M0 30.75C-5.12087e-07 36.6076 1.67305 42.3433 4.8223 47.2823C7.97155 52.2213 12.466 56.158 17.7767 58.6293L19.2861 55.3857C14.5933 53.2019 10.6217 49.7232 7.8389 45.3588C5.05605 40.9945 3.57765 35.9261 3.57765 30.75L0 30.75Z" fill="#DE1E1E"/>
<path d="M52.4935 52.4935C56.6355 48.3516 59.5082 43.1128 60.7738 37.3935C62.0393 31.6743 61.645 25.7126 59.6371 20.2098L56.2762 21.4361C58.0504 26.2987 58.3989 31.5668 57.2806 36.6206C56.1623 41.6744 53.6238 46.3037 49.9638 49.9638L52.4935 52.4935Z" fill="#DE1E1E"/>
<path d="M0 30.75C-5.23243e-07 36.7352 1.74669 42.5903 5.02586 47.5973C8.30503 52.6043 12.9741 56.5454 18.4606 58.9374C23.947 61.3295 30.0122 62.0684 35.9125 61.0635C41.8127 60.0587 47.2915 57.3538 51.6769 53.2806C56.0623 49.2074 59.1636 43.9429 60.6006 38.1328C62.0376 32.3226 61.7477 26.2194 59.7666 20.5716C57.7854 14.9238 54.1992 9.97688 49.4475 6.33758C44.6958 2.69829 38.9854 0.52479 33.0165 0.0836409L32.9007 1.64974C38.5648 2.06836 43.9836 4.13085 48.4926 7.5843C53.0016 11.0377 56.4048 15.732 58.2847 21.0914C60.1647 26.4508 60.4398 32.2423 59.0762 37.7557C57.7126 43.2691 54.7696 48.2648 50.6082 52.13C46.4467 55.9952 41.2478 58.562 35.6488 59.5155C30.0499 60.469 24.2944 59.7678 19.0882 57.4979C13.8819 55.2281 9.45126 51.4882 6.33956 46.7369C3.22785 41.9856 1.57037 36.4295 1.57037 30.75L0 30.75Z" fill="#DE1E1E"/>
<path d="M34.219 0.1963C29.6921 -0.317676 25.1075 0.180705 20.7967 1.65541C16.486 3.13011 12.5568 5.54428 9.2933 8.72337C6.02977 11.9025 3.51344 15.767 1.92627 20.0376C0.339091 24.3082 -0.279276 28.8782 0.115876 33.417L5.7486 32.9266C5.4261 29.2223 5.93077 25.4927 7.22611 22.0073C8.52145 18.5219 10.5751 15.368 13.2386 12.7734C15.902 10.1789 19.1087 8.2086 22.6269 7.00505C26.145 5.8015 29.8866 5.39476 33.5811 5.81423L34.219 0.1963Z" fill="#DE1E1E"/>
</g>
<defs>
<filter id="filter0_i_7_1421" x="0" y="0" width="61.5" height="64.5" filterUnits="userSpaceOnUse" color-interpolation-filters="sRGB">
<feFlood flood-opacity="0" result="BackgroundImageFix"/>
<feBlend mode="normal" in="SourceGraphic" in2="BackgroundImageFix" result="shape"/>
<feColorMatrix in="SourceAlpha" type="matrix" values="0 0 0 0 0 0 0 0 0 0 0 0 0 0 0 0 0 0 127 0" result="hardAlpha"/>
<feOffset dy="3"/>
<feGaussianBlur stdDeviation="1.5"/>
<feComposite in2="hardAlpha" operator="arithmetic" k2="-1" k3="1"/>
<feColorMatrix type="matrix" values="0 0 0 0 0 0 0 0 0 0 0 0 0 0 0 0 0 0 0.25 0"/>
<feBlend mode="normal" in2="shape" result="effect1_innerShadow_7_1421"/>
</filter>
</defs>
</svg>
